<?xml version="1.0" encoding="UTF-8" standalone="no" ?>
<!DOCTYPE svg PUBLIC "-//W3C//DTD SVG 1.1//EN" "http://www.w3.org/Graphics/SVG/1.1/DTD/svg11.dtd">
<svg xmlns="http://www.w3.org/2000/svg" xmlns:xlink="http://www.w3.org/1999/xlink" version="1.1" width="350" height="350" viewBox="0 0 350 350" xml:space="preserve">
<desc>Created with Fabric.js 1.7.22</desc>
<defs>
</defs>
<g id="icon" style="stroke: none; stroke-width: 1; stroke-dasharray: none; stroke-linecap: butt; stroke-linejoin: miter; stroke-miterlimit: 10; fill: none; fill-rule: nonzero; opacity: 1;" transform="translate(-1.9444444444444287 -1.9444444444444287) scale(3.89 3.89)" >
	<path d="M 66.046 78.275 H 23.954 C 10.746 78.275 0 67.53 0 54.322 c 0 -10.769 7.136 -20.131 17.453 -23.048 C 21.541 19.547 32.509 11.725 45 11.725 c 12.491 0 23.458 7.822 27.547 19.55 C 82.864 34.191 90 43.552 90 54.322 C 90 67.53 79.254 78.275 66.046 78.275 z M 45 14.692 c -11.468 0 -21.506 7.339 -24.978 18.261 l -0.252 0.792 l -0.807 0.199 C 9.545 36.265 2.967 44.645 2.967 54.322 c 0 11.572 9.415 20.986 20.987 20.986 h 42.092 c 11.573 0 20.987 -9.415 20.987 -20.986 c 0 -9.677 -6.577 -18.057 -15.996 -20.378 l -0.806 -0.199 l -0.252 -0.792 C 66.506 22.03 56.467 14.692 45 14.692 z M 45.015 68.166 c -0.012 0 -0.023 0 -0.034 0 c -0.396 0 -0.81 -0.043 -1.227 -0.126 l -0.175 -0.044 c -1.159 -0.267 -2.202 -0.84 -3.022 -1.661 l -0.119 -0.132 l -11.59 -11.589 c -2.446 -2.446 -2.446 -6.426 0 -8.872 c 1.181 -1.182 2.756 -1.832 4.437 -1.832 c 1.68 0 3.255 0.65 4.437 1.832 l 1.004 1.004 V 31.629 c 0 -3.459 2.814 -6.274 6.274 -6.274 c 3.46 0 6.274 2.814 6.274 6.274 v 15.117 l 1.004 -1.004 c 1.181 -1.182 2.756 -1.832 4.436 -1.832 c 1.681 0 3.256 0.65 4.437 1.832 c 2.446 2.446 2.446 6.426 0 8.872 l -11.71 11.721 c -0.819 0.82 -1.86 1.393 -3.013 1.659 l -0.209 0.051 C 45.829 68.124 45.416 68.166 45.015 68.166 z M 44.993 65.199 c 0.191 -0.012 0.4 -0.018 0.605 -0.055 l 0.131 -0.034 c 0.594 -0.13 1.131 -0.412 1.556 -0.815 L 47.37 64.2 l 11.684 -11.685 c 0.621 -0.621 0.963 -1.452 0.963 -2.338 s -0.342 -1.717 -0.963 -2.338 c -1.241 -1.241 -3.434 -1.242 -4.677 0 l -6.069 6.071 V 31.629 c 0 -1.823 -1.484 -3.307 -3.307 -3.307 c -1.823 0 -3.307 1.484 -3.307 3.307 V 53.91 l -6.07 -6.071 c -1.242 -1.242 -3.435 -1.241 -4.677 0 c -0.621 0.621 -0.963 1.452 -0.963 2.338 s 0.342 1.717 0.963 2.338 l 11.767 11.777 c 0.425 0.404 0.963 0.686 1.562 0.818 l 0.121 0.031 C 44.612 65.182 44.804 65.192 44.993 65.199 z" style="stroke: none; stroke-width: 1; stroke-dasharray: none; stroke-linecap: butt; stroke-linejoin: miter; stroke-miterlimit: 10; fill: rgb(0,0,0); fill-rule: nonzero; opacity: 1;" transform=" matrix(1 0 0 1 0 0) " stroke-linecap="round" />
</g>
</svg>