<?xml version="1.0" encoding="UTF-8" standalone="no" ?>
<!DOCTYPE svg PUBLIC "-//W3C//DTD SVG 1.1//EN" "http://www.w3.org/Graphics/SVG/1.1/DTD/svg11.dtd">
<svg xmlns="http://www.w3.org/2000/svg" xmlns:xlink="http://www.w3.org/1999/xlink" version="1.1" width="350" height="350" viewBox="0 0 350 350" xml:space="preserve">
<desc>Created with Fabric.js 1.7.22</desc>
<defs>
</defs>
<g id="icon" style="stroke: none; stroke-width: 1; stroke-dasharray: none; stroke-linecap: butt; stroke-linejoin: miter; stroke-miterlimit: 10; fill: none; fill-rule: nonzero; opacity: 1;" transform="translate(-1.9444444444444287 -1.9444444444444287) scale(3.89 3.89)" >
	<path d="M 83.271 35.813 c -0.018 -0.017 -0.042 -0.022 -0.061 -0.038 c -0.005 -0.004 -0.007 -0.011 -0.013 -0.015 l -10.434 -8.181 V 4.096 C 72.765 1.837 70.927 0 68.668 0 H 21.332 c -2.258 0 -4.096 1.837 -4.096 4.096 v 23.485 l -10.432 8.18 c -0.028 0.022 -0.041 0.057 -0.067 0.082 c -0.042 0.03 -0.09 0.047 -0.128 0.085 c -1.049 1.049 -1.626 2.443 -1.626 3.926 v 44.594 c 0 3.062 2.491 5.553 5.552 5.553 h 68.928 c 3.062 0 5.553 -2.491 5.553 -5.553 V 39.854 C 85.017 38.331 84.381 36.858 83.271 35.813 z M 81.01 36.585 l -8.245 7.149 V 30.12 L 81.01 36.585 z M 21.332 2 h 47.336 c 1.156 0 2.097 0.94 2.097 2.096 v 41.372 L 47.496 65.645 c -1.422 1.234 -3.569 1.234 -4.992 0 L 19.236 45.468 V 4.096 C 19.236 2.94 20.176 2 21.332 2 z M 17.236 30.123 v 13.611 l -8.243 -7.148 L 17.236 30.123 z M 83.017 84.447 c 0 1.959 -1.594 3.553 -3.553 3.553 H 10.536 c -1.958 0 -3.552 -1.594 -3.552 -3.553 V 39.854 c 0 -0.679 0.196 -1.325 0.55 -1.885 l 33.66 29.188 c 1.085 0.94 2.446 1.411 3.807 1.411 c 1.36 0 2.722 -0.471 3.807 -1.411 l 33.657 -29.185 c 0.352 0.559 0.553 1.201 0.553 1.882 V 84.447 z" style="stroke: none; stroke-width: 1; stroke-dasharray: none; stroke-linecap: butt; stroke-linejoin: miter; stroke-miterlimit: 10; fill: rgb(0,0,0); fill-rule: nonzero; opacity: 1;" transform=" matrix(1 0 0 1 0 0) " stroke-linecap="round" />
	<path d="M 26.522 11.923 h 36.955 c 0.553 0 1 -0.448 1 -1 s -0.447 -1 -1 -1 H 26.522 c -0.552 0 -1 0.448 -1 1 S 25.97 11.923 26.522 11.923 z" style="stroke: none; stroke-width: 1; stroke-dasharray: none; stroke-linecap: butt; stroke-linejoin: miter; stroke-miterlimit: 10; fill: rgb(0,0,0); fill-rule: nonzero; opacity: 1;" transform=" matrix(1 0 0 1 0 0) " stroke-linecap="round" />
	<path d="M 63.478 21.902 H 26.522 c -0.552 0 -1 -0.448 -1 -1 s 0.448 -1 1 -1 h 36.955 c 0.553 0 1 0.448 1 1 S 64.03 21.902 63.478 21.902 z" style="stroke: none; stroke-width: 1; stroke-dasharray: none; stroke-linecap: butt; stroke-linejoin: miter; stroke-miterlimit: 10; fill: rgb(0,0,0); fill-rule: nonzero; opacity: 1;" transform=" matrix(1 0 0 1 0 0) " stroke-linecap="round" />
	<path d="M 63.478 31.881 H 26.522 c -0.552 0 -1 -0.448 -1 -1 s 0.448 -1 1 -1 h 36.955 c 0.553 0 1 0.448 1 1 S 64.03 31.881 63.478 31.881 z" style="stroke: none; stroke-width: 1; stroke-dasharray: none; stroke-linecap: butt; stroke-linejoin: miter; stroke-miterlimit: 10; fill: rgb(0,0,0); fill-rule: nonzero; opacity: 1;" transform=" matrix(1 0 0 1 0 0) " stroke-linecap="round" />
	<path d="M 47.115 41.86 H 26.522 c -0.552 0 -1 -0.448 -1 -1 s 0.448 -1 1 -1 h 20.593 c 0.553 0 1 0.448 1 1 S 47.668 41.86 47.115 41.86 z" style="stroke: none; stroke-width: 1; stroke-dasharray: none; stroke-linecap: butt; stroke-linejoin: miter; stroke-miterlimit: 10; fill: rgb(0,0,0); fill-rule: nonzero; opacity: 1;" transform=" matrix(1 0 0 1 0 0) " stroke-linecap="round" />
	<path d="M 60.421 81.474 H 45 c -0.552 0 -1 -0.447 -1 -1 s 0.448 -1 1 -1 h 15.421 c 0.553 0 1 0.447 1 1 S 60.974 81.474 60.421 81.474 z" style="stroke: none; stroke-width: 1; stroke-dasharray: none; stroke-linecap: butt; stroke-linejoin: miter; stroke-miterlimit: 10; fill: rgb(0,0,0); fill-rule: nonzero; opacity: 1;" transform=" matrix(1 0 0 1 0 0) " stroke-linecap="round" />
	<path d="M 76.08 81.474 h -7.084 c -0.553 0 -1 -0.447 -1 -1 s 0.447 -1 1 -1 h 7.084 c 0.553 0 1 0.447 1 1 S 76.633 81.474 76.08 81.474 z" style="stroke: none; stroke-width: 1; stroke-dasharray: none; stroke-linecap: butt; stroke-linejoin: miter; stroke-miterlimit: 10; fill: rgb(0,0,0); fill-rule: nonzero; opacity: 1;" transform=" matrix(1 0 0 1 0 0) " stroke-linecap="round" />
</g>
</svg>